<mxfile host="app.diagrams.net" modified="2023-12-29T05:20:16.873Z" agent="Mozilla/5.0 (Windows NT 10.0; Win64; x64; rv:121.0) Gecko/20100101 Firefox/121.0" etag="01qy3AmuERuy_oVlEVTw" version="22.1.15" type="github">
  <diagram name="Page-1" id="75lw7hJk5aBtxpXf1QKO">
    <mxGraphModel dx="1434" dy="754" grid="1" gridSize="10" guides="1" tooltips="1" connect="1" arrows="1" fold="1" page="1" pageScale="1" pageWidth="850" pageHeight="1100" math="0" shadow="0">
      <root>
        <mxCell id="0" />
        <mxCell id="1" parent="0" />
      </root>
    </mxGraphModel>
  </diagram>
</mxfile>
